<svg width="240" height="88" viewBox="0 0 240 88" fill="none" xmlns="http://www.w3.org/2000/svg">
<path d="M20.2704 20.5977L33.2693 54.9356H27.1753L25.4021 50.2513H7.85798L6.08936 54.9356H0L12.9943 20.5977H20.2704ZM16.6369 27.0794L10.2223 44.0101H23.0516L16.6369 27.0794Z" fill="white"/>
<path d="M58.7951 48.6943H45.8008V54.9355H58.7951V48.6943Z" fill="white"/>
<path d="M43.2899 20.6016H36.9898V54.935H43.2899V20.6016Z" fill="white"/>
<path d="M51.6199 26.8389V20.5977H86.2775V26.8389H72.1011V54.9356H65.7963V26.8389H51.6199Z" fill="white"/>
<path d="M89.7506 54.9356V20.5977H124.408V26.8389H96.0507V34.6415H124.408V40.8918H96.0507V48.6944H124.408V54.9356H89.7506Z" fill="white"/>
<path d="M162.543 30.7424C162.543 34.5598 159.629 38.7902 156.046 40.1837L154.443 40.8101L161.581 54.9356H155.625L148.564 40.8918H134.181V54.9356H127.881V20.5977H152.303C155.019 20.5977 157.624 21.6665 159.544 23.569C161.465 25.4715 162.543 28.0519 162.543 30.7424ZM156.243 30.7424C156.243 29.7071 155.828 28.7143 155.089 27.9822C154.35 27.2501 153.348 26.8389 152.303 26.8389H134.181V34.6415H152.303C153.347 34.6415 154.349 34.2309 155.088 33.4998C155.826 32.7687 156.242 31.777 156.243 30.7424Z" fill="white"/>
<path d="M194.182 40.1834C197.76 38.7944 200.679 34.5595 200.679 30.7421C200.679 30.6786 200.679 30.6105 200.679 30.5469C200.681 30.5228 200.681 30.4985 200.679 30.4743C200.676 30.1707 200.655 29.8675 200.615 29.5665C200.325 27.0962 199.129 24.8174 197.255 23.163C195.38 21.5086 192.958 20.594 190.447 20.5928H166.012V54.9262H172.317V40.8914H186.681L193.774 54.9353H196.486C196.825 54.0683 197.155 53.1877 197.462 52.289C197.586 51.9259 197.71 51.5673 197.829 51.2042L192.55 40.8007L194.182 40.1834ZM172.317 34.6457V26.8431H190.438C191.459 26.8776 192.427 27.3037 193.137 28.0316C193.847 28.7595 194.244 29.7321 194.244 30.7444C194.244 31.7566 193.847 32.7293 193.137 33.4572C192.427 34.185 191.459 34.6112 190.438 34.6457H172.317Z" fill="white"/>
<path d="M226.402 20.6016H219.126L213.229 36.1887C212.729 41.9363 211.518 47.6012 209.623 53.0558C209.407 53.6913 209.164 54.3177 208.949 54.9395H212.225L213.994 50.2552H231.543L233.33 54.935H239.414L226.402 20.6016ZM216.376 44.0049L222.791 27.0788L229.206 44.0049H216.376Z" fill="white"/>
<path d="M200.67 30.4742C200.67 30.1746 200.633 29.8751 200.605 29.5664C200.646 29.8674 200.667 30.1706 200.67 30.4742Z" fill="white"/>
<path d="M207.602 53.0562C199.414 76.8182 180.761 92.015 165.939 87.0038C155.332 83.418 149.558 70.4454 150.14 54.6494C150.162 54.1641 150.333 53.6969 150.63 53.3104C150.507 66.283 155.446 76.8 164.266 79.7822C177.036 84.1034 193.1 71.0082 200.152 50.5416C207.203 30.075 202.58 9.98056 189.81 5.66391C180.99 2.67721 170.589 8.01061 162.681 18.3506C162.68 17.8629 162.832 17.3871 163.116 16.9889C172.408 4.13425 184.981 -2.63348 195.588 0.956913C210.42 5.96349 215.794 29.2897 207.602 53.0562Z" fill="white"/>
</svg>
